<svg width="25" height="24" viewBox="0 0 25 24" fill="none" xmlns="http://www.w3.org/2000/svg">
<path d="M12.5 16C14.7091 16 16.5 14.2091 16.5 12C16.5 9.79086 14.7091 8 12.5 8C10.2909 8 8.5 9.79086 8.5 12C8.5 14.2091 10.2909 16 12.5 16Z" stroke="#020318" stroke-width="2" stroke-linecap="round" stroke-linejoin="round"/>
<path d="M16.5 8.00036V13.0004C16.5 13.796 16.8161 14.5591 17.3787 15.1217C17.9413 15.6843 18.7044 16.0004 19.5 16.0004C20.2957 16.0004 21.0587 15.6843 21.6213 15.1217C22.1839 14.5591 22.5 13.796 22.5 13.0004V12.0004C22.4999 9.74339 21.7362 7.55283 20.3333 5.78489C18.9303 4.01694 16.9706 2.77558 14.7726 2.26265C12.5747 1.74973 10.2679 1.9954 8.22736 2.95972C6.18677 3.92405 4.53241 5.55031 3.53327 7.57408C2.53413 9.59785 2.24898 11.9001 2.72418 14.1065C3.19938 16.3128 4.40699 18.2936 6.15064 19.7266C7.89429 21.1597 10.0714 21.9607 12.3281 21.9995C14.5847 22.0383 16.7881 21.3126 18.58 19.9404" stroke="#020318" stroke-width="2" stroke-linecap="round" stroke-linejoin="round"/>
</svg>
