<svg width="21" height="20" viewBox="0 0 21 20" fill="none" xmlns="http://www.w3.org/2000/svg">
<path d="M12.1666 1.66699H5.49992C5.05789 1.66699 4.63397 1.84259 4.32141 2.15515C4.00885 2.46771 3.83325 2.89163 3.83325 3.33366V16.667C3.83325 17.109 4.00885 17.5329 4.32141 17.8455C4.63397 18.1581 5.05789 18.3337 5.49992 18.3337H15.4999C15.9419 18.3337 16.3659 18.1581 16.6784 17.8455C16.991 17.5329 17.1666 17.109 17.1666 16.667V6.66699L12.1666 1.66699Z" stroke="#020318" stroke-width="1.66667" stroke-linecap="round" stroke-linejoin="round"/>
<path d="M12.1667 1.66699V6.66699H17.1667" stroke="#020318" stroke-width="1.66667" stroke-linecap="round" stroke-linejoin="round"/>
<path d="M13.8334 10.833H7.16675" stroke="#020318" stroke-width="1.66667" stroke-linecap="round" stroke-linejoin="round"/>
<path d="M13.8334 14.167H7.16675" stroke="#020318" stroke-width="1.66667" stroke-linecap="round" stroke-linejoin="round"/>
<path d="M8.83341 7.5H8.00008H7.16675" stroke="#020318" stroke-width="1.66667" stroke-linecap="round" stroke-linejoin="round"/>
</svg>
