<svg width="156" height="33" viewBox="0 0 156 33" fill="none" xmlns="http://www.w3.org/2000/svg">
<rect x="10" y="4.5" width="24" height="24" rx="8" fill="#A5E2FE"/>
<path d="M22.068 21.0896C21.4451 21.0896 20.8819 20.9829 20.3784 20.7696C19.8835 20.5563 19.4909 20.2491 19.2008 19.848C18.9107 19.4469 18.7613 18.9733 18.7528 18.4272H20.6728C20.6984 18.7941 20.8264 19.0843 21.0568 19.2976C21.2957 19.5109 21.62 19.6176 22.0296 19.6176C22.4477 19.6176 22.7763 19.5195 23.0152 19.3232C23.2541 19.1184 23.3736 18.8539 23.3736 18.5296C23.3736 18.2651 23.2925 18.0475 23.1304 17.8768C22.9683 17.7061 22.7635 17.5739 22.516 17.48C22.2771 17.3776 21.9443 17.2667 21.5176 17.1472C20.9373 16.9765 20.4637 16.8101 20.0968 16.648C19.7384 16.4773 19.4269 16.2256 19.1624 15.8928C18.9064 15.5515 18.7784 15.0992 18.7784 14.536C18.7784 14.0069 18.9107 13.5461 19.1752 13.1536C19.4397 12.7611 19.8109 12.4624 20.2888 12.2576C20.7667 12.0443 21.3128 11.9376 21.9272 11.9376C22.8488 11.9376 23.5955 12.1637 24.1672 12.616C24.7475 13.0597 25.0675 13.6827 25.1272 14.4848H23.156C23.1389 14.1776 23.0067 13.9259 22.7592 13.7296C22.5203 13.5248 22.2003 13.4224 21.7992 13.4224C21.4493 13.4224 21.1677 13.512 20.9544 13.6912C20.7496 13.8704 20.6472 14.1307 20.6472 14.472C20.6472 14.7109 20.724 14.9115 20.8776 15.0736C21.0397 15.2272 21.236 15.3552 21.4664 15.4576C21.7053 15.5515 22.0381 15.6624 22.4648 15.7904C23.0451 15.9611 23.5187 16.1317 23.8856 16.3024C24.2525 16.4731 24.5683 16.7291 24.8328 17.0704C25.0973 17.4117 25.2296 17.8597 25.2296 18.4144C25.2296 18.8923 25.1059 19.336 24.8584 19.7456C24.6109 20.1552 24.2483 20.4837 23.7704 20.7312C23.2925 20.9701 22.7251 21.0896 22.068 21.0896Z" fill="#020318"/>
<rect x="38" y="4.5" width="24" height="24" rx="8" fill="#A5E2FE"/>
<path d="M53.2695 12.0656V13.512H50.8887V21H49.0967V13.512H46.7158V12.0656H53.2695Z" fill="#020318"/>
<rect x="66" y="4.5" width="24" height="24" rx="8" fill="#A5E2FE"/>
<path d="M80.5017 22.5744L79.1449 20.9488C78.7694 21.0427 78.3854 21.0896 77.9929 21.0896C77.1566 21.0896 76.3886 20.8933 75.6889 20.5008C74.9892 20.1083 74.4345 19.5664 74.0249 18.8752C73.6153 18.1755 73.4105 17.3861 73.4105 16.5072C73.4105 15.6368 73.6153 14.856 74.0249 14.1648C74.4345 13.4651 74.9892 12.9189 75.6889 12.5264C76.3886 12.1339 77.1566 11.9376 77.9929 11.9376C78.8377 11.9376 79.6057 12.1339 80.2969 12.5264C80.9966 12.9189 81.547 13.4651 81.9481 14.1648C82.3577 14.856 82.5625 15.6368 82.5625 16.5072C82.5625 17.3008 82.3918 18.0261 82.0505 18.6832C81.7177 19.3317 81.2612 19.8608 80.6809 20.2704L82.7289 22.5744H80.5017ZM75.2537 16.5072C75.2537 17.1045 75.3689 17.6293 75.5993 18.0816C75.8297 18.5339 76.1497 18.8837 76.5593 19.1312C76.9774 19.3701 77.4553 19.4896 77.9929 19.4896C78.5305 19.4896 79.0041 19.3701 79.4137 19.1312C79.8233 18.8837 80.1433 18.5339 80.3737 18.0816C80.6041 17.6293 80.7193 17.1045 80.7193 16.5072C80.7193 15.9099 80.6041 15.3893 80.3737 14.9456C80.1433 14.4933 79.8233 14.1477 79.4137 13.9088C79.0041 13.6699 78.5305 13.5504 77.9929 13.5504C77.4553 13.5504 76.9774 13.6699 76.5593 13.9088C76.1497 14.1477 75.8297 14.4933 75.5993 14.9456C75.3689 15.3893 75.2537 15.9099 75.2537 16.5072Z" fill="#020318"/>
<rect x="94" y="4.5" width="24" height="24" rx="8" fill="#A5E2FE"/>
<path d="M108.502 22.5744L107.145 20.9488C106.769 21.0427 106.385 21.0896 105.993 21.0896C105.157 21.0896 104.389 20.8933 103.689 20.5008C102.989 20.1083 102.435 19.5664 102.025 18.8752C101.615 18.1755 101.411 17.3861 101.411 16.5072C101.411 15.6368 101.615 14.856 102.025 14.1648C102.435 13.4651 102.989 12.9189 103.689 12.5264C104.389 12.1339 105.157 11.9376 105.993 11.9376C106.838 11.9376 107.606 12.1339 108.297 12.5264C108.997 12.9189 109.547 13.4651 109.948 14.1648C110.358 14.856 110.563 15.6368 110.563 16.5072C110.563 17.3008 110.392 18.0261 110.051 18.6832C109.718 19.3317 109.261 19.8608 108.681 20.2704L110.729 22.5744H108.502ZM103.254 16.5072C103.254 17.1045 103.369 17.6293 103.599 18.0816C103.83 18.5339 104.15 18.8837 104.559 19.1312C104.977 19.3701 105.455 19.4896 105.993 19.4896C106.531 19.4896 107.004 19.3701 107.414 19.1312C107.823 18.8837 108.143 18.5339 108.374 18.0816C108.604 17.6293 108.719 17.1045 108.719 16.5072C108.719 15.9099 108.604 15.3893 108.374 14.9456C108.143 14.4933 107.823 14.1477 107.414 13.9088C107.004 13.6699 106.531 13.5504 105.993 13.5504C105.455 13.5504 104.977 13.6699 104.559 13.9088C104.15 14.1477 103.83 14.4933 103.599 14.9456C103.369 15.3893 103.254 15.9099 103.254 16.5072Z" fill="#020318"/>
<rect x="122" y="4.5" width="24" height="24" rx="8" fill="#A5E2FE"/>
<path d="M134.068 21.0896C133.445 21.0896 132.882 20.9829 132.378 20.7696C131.883 20.5563 131.491 20.2491 131.201 19.848C130.911 19.4469 130.761 18.9733 130.753 18.4272H132.673C132.698 18.7941 132.826 19.0843 133.057 19.2976C133.296 19.5109 133.62 19.6176 134.03 19.6176C134.448 19.6176 134.776 19.5195 135.015 19.3232C135.254 19.1184 135.374 18.8539 135.374 18.5296C135.374 18.2651 135.293 18.0475 135.13 17.8768C134.968 17.7061 134.763 17.5739 134.516 17.48C134.277 17.3776 133.944 17.2667 133.518 17.1472C132.937 16.9765 132.464 16.8101 132.097 16.648C131.738 16.4773 131.427 16.2256 131.162 15.8928C130.906 15.5515 130.778 15.0992 130.778 14.536C130.778 14.0069 130.911 13.5461 131.175 13.1536C131.44 12.7611 131.811 12.4624 132.289 12.2576C132.767 12.0443 133.313 11.9376 133.927 11.9376C134.849 11.9376 135.595 12.1637 136.167 12.616C136.747 13.0597 137.067 13.6827 137.127 14.4848H135.156C135.139 14.1776 135.007 13.9259 134.759 13.7296C134.52 13.5248 134.2 13.4224 133.799 13.4224C133.449 13.4224 133.168 13.512 132.954 13.6912C132.75 13.8704 132.647 14.1307 132.647 14.472C132.647 14.7109 132.724 14.9115 132.878 15.0736C133.04 15.2272 133.236 15.3552 133.466 15.4576C133.705 15.5515 134.038 15.6624 134.465 15.7904C135.045 15.9611 135.519 16.1317 135.886 16.3024C136.253 16.4731 136.568 16.7291 136.833 17.0704C137.097 17.4117 137.23 17.8597 137.23 18.4144C137.23 18.8923 137.106 19.336 136.858 19.7456C136.611 20.1552 136.248 20.4837 135.77 20.7312C135.293 20.9701 134.725 21.0896 134.068 21.0896Z" fill="#020318"/>
</svg>
